<svg width="240" height="240" viewBox="0 0 240 240" fill="none" xmlns="http://www.w3.org/2000/svg">
  <rect width="240" height="240" rx="28" fill="#F4FBF5"/>
  <rect x="24" y="24" width="64" height="64" rx="10" fill="#163020"/>
  <rect x="40" y="40" width="32" height="32" rx="6" fill="#F4FBF5"/>
  <rect x="152" y="24" width="64" height="64" rx="10" fill="#163020"/>
  <rect x="168" y="40" width="32" height="32" rx="6" fill="#F4FBF5"/>
  <rect x="24" y="152" width="64" height="64" rx="10" fill="#163020"/>
  <rect x="40" y="168" width="32" height="32" rx="6" fill="#F4FBF5"/>
  <rect x="104" y="32" width="24" height="24" rx="6" fill="#163020"/>
  <rect x="136" y="40" width="16" height="48" rx="4" fill="#163020"/>
  <rect x="104" y="72" width="24" height="16" rx="4" fill="#163020"/>
  <rect x="104" y="112" width="16" height="16" rx="4" fill="#163020"/>
  <rect x="128" y="112" width="24" height="24" rx="6" fill="#163020"/>
  <rect x="160" y="112" width="32" height="16" rx="4" fill="#163020"/>
  <rect x="104" y="144" width="16" height="48" rx="4" fill="#163020"/>
  <rect x="128" y="152" width="16" height="16" rx="4" fill="#163020"/>
  <rect x="152" y="144" width="16" height="48" rx="4" fill="#163020"/>
  <rect x="176" y="160" width="16" height="32" rx="4" fill="#163020"/>
  <text x="120" y="226" text-anchor="middle" fill="#475569" font-size="14" font-family="Arial, sans-serif">Android QR Placeholder</text>
</svg>
